<mxfile host="app.diagrams.net" modified="2022-04-30T20:06:11.683Z" agent="5.0 (Macintosh; Intel Mac OS X 10_15_7) AppleWebKit/537.36 (KHTML, like Gecko) Chrome/100.0.4896.127 Safari/537.36" etag="9v9n8Es5AgsebAX6lojU" version="17.5.0" type="github">
  <diagram id="R2lEEEUBdFMjLlhIrx00" name="Page-1">
    <mxGraphModel dx="1127" dy="739" grid="1" gridSize="10" guides="1" tooltips="1" connect="1" arrows="1" fold="1" page="1" pageScale="1" pageWidth="850" pageHeight="1100" math="0" shadow="0" extFonts="Permanent Marker^https://fonts.googleapis.com/css?family=Permanent+Marker">
      <root>
        <mxCell id="0" />
        <mxCell id="1" parent="0" />
        <mxCell id="X6uzCjoW9kqWLh0DYhOa-25" style="edgeStyle=orthogonalEdgeStyle;rounded=0;orthogonalLoop=1;jettySize=auto;html=1;entryX=0;entryY=0.5;entryDx=0;entryDy=0;" edge="1" parent="1" source="X6uzCjoW9kqWLh0DYhOa-1" target="X6uzCjoW9kqWLh0DYhOa-6">
          <mxGeometry relative="1" as="geometry">
            <Array as="points">
              <mxPoint x="270" y="530" />
            </Array>
          </mxGeometry>
        </mxCell>
        <mxCell id="X6uzCjoW9kqWLh0DYhOa-26" style="edgeStyle=orthogonalEdgeStyle;rounded=0;orthogonalLoop=1;jettySize=auto;html=1;entryX=0;entryY=0.5;entryDx=0;entryDy=0;" edge="1" parent="1" source="X6uzCjoW9kqWLh0DYhOa-1" target="X6uzCjoW9kqWLh0DYhOa-5">
          <mxGeometry relative="1" as="geometry" />
        </mxCell>
        <mxCell id="X6uzCjoW9kqWLh0DYhOa-33" style="edgeStyle=orthogonalEdgeStyle;rounded=0;orthogonalLoop=1;jettySize=auto;html=1;" edge="1" parent="1" source="X6uzCjoW9kqWLh0DYhOa-1" target="X6uzCjoW9kqWLh0DYhOa-3">
          <mxGeometry relative="1" as="geometry">
            <Array as="points">
              <mxPoint x="140" y="450" />
              <mxPoint x="140" y="450" />
            </Array>
          </mxGeometry>
        </mxCell>
        <mxCell id="X6uzCjoW9kqWLh0DYhOa-35" style="edgeStyle=orthogonalEdgeStyle;rounded=0;orthogonalLoop=1;jettySize=auto;html=1;entryX=0.5;entryY=1;entryDx=0;entryDy=0;" edge="1" parent="1" source="X6uzCjoW9kqWLh0DYhOa-1" target="X6uzCjoW9kqWLh0DYhOa-4">
          <mxGeometry relative="1" as="geometry">
            <Array as="points">
              <mxPoint x="230" y="710" />
              <mxPoint x="730" y="710" />
            </Array>
          </mxGeometry>
        </mxCell>
        <mxCell id="X6uzCjoW9kqWLh0DYhOa-1" value="Main App - All features included" style="rounded=0;whiteSpace=wrap;html=1;" vertex="1" parent="1">
          <mxGeometry x="80" y="370" width="240" height="60" as="geometry" />
        </mxCell>
        <mxCell id="X6uzCjoW9kqWLh0DYhOa-24" style="edgeStyle=orthogonalEdgeStyle;rounded=0;orthogonalLoop=1;jettySize=auto;html=1;exitX=0.25;exitY=1;exitDx=0;exitDy=0;entryX=1;entryY=0.5;entryDx=0;entryDy=0;" edge="1" parent="1" source="X6uzCjoW9kqWLh0DYhOa-2" target="X6uzCjoW9kqWLh0DYhOa-6">
          <mxGeometry relative="1" as="geometry">
            <Array as="points">
              <mxPoint x="600" y="430" />
              <mxPoint x="600" y="530" />
            </Array>
          </mxGeometry>
        </mxCell>
        <mxCell id="X6uzCjoW9kqWLh0DYhOa-27" style="edgeStyle=orthogonalEdgeStyle;rounded=0;orthogonalLoop=1;jettySize=auto;html=1;entryX=1;entryY=0.5;entryDx=0;entryDy=0;" edge="1" parent="1" source="X6uzCjoW9kqWLh0DYhOa-2" target="X6uzCjoW9kqWLh0DYhOa-5">
          <mxGeometry relative="1" as="geometry" />
        </mxCell>
        <mxCell id="X6uzCjoW9kqWLh0DYhOa-34" style="edgeStyle=orthogonalEdgeStyle;rounded=0;orthogonalLoop=1;jettySize=auto;html=1;" edge="1" parent="1" source="X6uzCjoW9kqWLh0DYhOa-2" target="X6uzCjoW9kqWLh0DYhOa-4">
          <mxGeometry relative="1" as="geometry">
            <Array as="points">
              <mxPoint x="730" y="440" />
              <mxPoint x="730" y="440" />
            </Array>
          </mxGeometry>
        </mxCell>
        <mxCell id="X6uzCjoW9kqWLh0DYhOa-36" style="edgeStyle=orthogonalEdgeStyle;rounded=0;orthogonalLoop=1;jettySize=auto;html=1;entryX=0.5;entryY=1;entryDx=0;entryDy=0;" edge="1" parent="1" source="X6uzCjoW9kqWLh0DYhOa-2" target="X6uzCjoW9kqWLh0DYhOa-3">
          <mxGeometry relative="1" as="geometry">
            <Array as="points">
              <mxPoint x="630" y="750" />
              <mxPoint x="140" y="750" />
            </Array>
          </mxGeometry>
        </mxCell>
        <mxCell id="X6uzCjoW9kqWLh0DYhOa-2" value="Special App - Different features" style="rounded=0;whiteSpace=wrap;html=1;" vertex="1" parent="1">
          <mxGeometry x="570" y="370" width="190" height="60" as="geometry" />
        </mxCell>
        <mxCell id="X6uzCjoW9kqWLh0DYhOa-3" value="Service" style="rounded=1;whiteSpace=wrap;html=1;arcSize=50;" vertex="1" parent="1">
          <mxGeometry x="80" y="580" width="120" height="60" as="geometry" />
        </mxCell>
        <mxCell id="X6uzCjoW9kqWLh0DYhOa-4" value="Model" style="rounded=1;whiteSpace=wrap;html=1;arcSize=50;" vertex="1" parent="1">
          <mxGeometry x="670" y="590" width="120" height="60" as="geometry" />
        </mxCell>
        <mxCell id="X6uzCjoW9kqWLh0DYhOa-10" style="edgeStyle=orthogonalEdgeStyle;rounded=0;orthogonalLoop=1;jettySize=auto;html=1;" edge="1" parent="1" source="X6uzCjoW9kqWLh0DYhOa-6" target="X6uzCjoW9kqWLh0DYhOa-5">
          <mxGeometry relative="1" as="geometry" />
        </mxCell>
        <mxCell id="X6uzCjoW9kqWLh0DYhOa-30" style="edgeStyle=orthogonalEdgeStyle;rounded=0;orthogonalLoop=1;jettySize=auto;html=1;" edge="1" parent="1" source="X6uzCjoW9kqWLh0DYhOa-6">
          <mxGeometry relative="1" as="geometry">
            <mxPoint x="200" y="620" as="targetPoint" />
            <Array as="points">
              <mxPoint x="420" y="620" />
            </Array>
          </mxGeometry>
        </mxCell>
        <mxCell id="X6uzCjoW9kqWLh0DYhOa-32" style="edgeStyle=orthogonalEdgeStyle;rounded=0;orthogonalLoop=1;jettySize=auto;html=1;entryX=0;entryY=0.5;entryDx=0;entryDy=0;" edge="1" parent="1" source="X6uzCjoW9kqWLh0DYhOa-6" target="X6uzCjoW9kqWLh0DYhOa-4">
          <mxGeometry relative="1" as="geometry">
            <Array as="points">
              <mxPoint x="480" y="620" />
            </Array>
          </mxGeometry>
        </mxCell>
        <mxCell id="X6uzCjoW9kqWLh0DYhOa-6" value="UI" style="rounded=1;whiteSpace=wrap;html=1;" vertex="1" parent="1">
          <mxGeometry x="390" y="500" width="120" height="60" as="geometry" />
        </mxCell>
        <mxCell id="X6uzCjoW9kqWLh0DYhOa-28" style="edgeStyle=orthogonalEdgeStyle;rounded=0;orthogonalLoop=1;jettySize=auto;html=1;entryX=1;entryY=0.5;entryDx=0;entryDy=0;" edge="1" parent="1" source="X6uzCjoW9kqWLh0DYhOa-5" target="X6uzCjoW9kqWLh0DYhOa-4">
          <mxGeometry relative="1" as="geometry">
            <Array as="points">
              <mxPoint x="450" y="280" />
              <mxPoint x="840" y="280" />
              <mxPoint x="840" y="620" />
            </Array>
          </mxGeometry>
        </mxCell>
        <mxCell id="X6uzCjoW9kqWLh0DYhOa-29" style="edgeStyle=orthogonalEdgeStyle;rounded=0;orthogonalLoop=1;jettySize=auto;html=1;" edge="1" parent="1" source="X6uzCjoW9kqWLh0DYhOa-5">
          <mxGeometry relative="1" as="geometry">
            <mxPoint x="80" y="620" as="targetPoint" />
            <Array as="points">
              <mxPoint x="450" y="280" />
              <mxPoint x="30" y="280" />
              <mxPoint x="30" y="620" />
            </Array>
          </mxGeometry>
        </mxCell>
        <mxCell id="X6uzCjoW9kqWLh0DYhOa-5" value="Store" style="rounded=1;whiteSpace=wrap;html=1;" vertex="1" parent="1">
          <mxGeometry x="390" y="370" width="120" height="60" as="geometry" />
        </mxCell>
      </root>
    </mxGraphModel>
  </diagram>
</mxfile>
